<?xml version="1.0" encoding="UTF-8" standalone="no"?>
<!DOCTYPE svg PUBLIC "-//W3C//DTD SVG 1.1//EN" "http://www.w3.org/Graphics/SVG/1.1/DTD/svg11.dtd">
<svg width="100%" height="100%" viewBox="0 0 1313 290" version="1.1" xmlns="http://www.w3.org/2000/svg" xmlns:xlink="http://www.w3.org/1999/xlink" xml:space="preserve" xmlns:serif="http://www.serif.com/" style="fill-rule:evenodd;clip-rule:evenodd;stroke-linejoin:round;stroke-miterlimit:2;">
    <g id="Artboard1" transform="matrix(0.816632,0,0,1,-169.744,-367.683)">
        <rect x="207.859" y="367.683" width="1607.56" height="289.697" style="fill:none;"/>
        <g transform="matrix(0.558904,0,0,0.456419,-37.7388,236.825)">
            <g>
                <g transform="matrix(577.377,0,0,577.377,417.635,740.575)">
                    <path d="M0.047,-0.349C0.059,-0.417 0.086,-0.478 0.127,-0.532C0.168,-0.586 0.218,-0.628 0.278,-0.659C0.337,-0.689 0.399,-0.704 0.464,-0.704C0.538,-0.704 0.601,-0.686 0.653,-0.65C0.704,-0.613 0.737,-0.562 0.751,-0.495L0.614,-0.495C0.601,-0.53 0.581,-0.556 0.552,-0.574C0.523,-0.591 0.488,-0.6 0.446,-0.6C0.4,-0.6 0.357,-0.59 0.318,-0.569C0.278,-0.548 0.245,-0.519 0.218,-0.481C0.191,-0.443 0.173,-0.399 0.164,-0.349C0.161,-0.327 0.159,-0.308 0.159,-0.293C0.159,-0.233 0.177,-0.185 0.213,-0.15C0.249,-0.115 0.297,-0.097 0.357,-0.097C0.419,-0.097 0.473,-0.115 0.518,-0.15C0.563,-0.185 0.595,-0.232 0.614,-0.292L0.353,-0.292L0.369,-0.381L0.752,-0.381L0.736,-0.292C0.719,-0.238 0.691,-0.188 0.652,-0.143C0.613,-0.098 0.566,-0.062 0.511,-0.035C0.457,-0.008 0.4,0.006 0.339,0.006C0.282,0.006 0.23,-0.006 0.185,-0.03C0.14,-0.054 0.104,-0.088 0.079,-0.131C0.054,-0.174 0.041,-0.224 0.041,-0.281C0.041,-0.302 0.043,-0.325 0.047,-0.349Z" style="fill-rule:nonzero;"/>
                </g>
                <g transform="matrix(577.377,0,0,577.377,863.947,740.575)">
                    <path d="M0.182,-0.551L0.263,-0.131L0.498,-0.551L0.616,-0.551L0.136,0.259L0.018,0.259L0.177,-0.009L0.055,-0.551L0.182,-0.551Z" style="fill-rule:nonzero;"/>
                </g>
                <g transform="matrix(577.377,0,0,577.377,1199.98,740.575)">
                    <path d="M0.789,-0.56C0.847,-0.56 0.893,-0.544 0.928,-0.513C0.963,-0.482 0.98,-0.437 0.98,-0.38C0.98,-0.365 0.978,-0.346 0.975,-0.325L0.917,-0L0.804,-0L0.859,-0.308C0.862,-0.327 0.863,-0.34 0.863,-0.348C0.863,-0.385 0.853,-0.413 0.833,-0.432C0.812,-0.451 0.784,-0.461 0.748,-0.461C0.705,-0.461 0.668,-0.448 0.639,-0.422C0.609,-0.395 0.59,-0.357 0.582,-0.308L0.527,-0L0.414,-0L0.469,-0.308C0.472,-0.327 0.473,-0.34 0.473,-0.348C0.473,-0.385 0.463,-0.413 0.443,-0.432C0.422,-0.451 0.394,-0.461 0.358,-0.461C0.315,-0.461 0.278,-0.448 0.249,-0.422C0.219,-0.395 0.2,-0.357 0.192,-0.308L0.192,-0.311L0.137,-0L0.023,-0L0.12,-0.551L0.234,-0.551L0.223,-0.487C0.245,-0.51 0.272,-0.528 0.303,-0.541C0.334,-0.554 0.366,-0.56 0.399,-0.56C0.443,-0.56 0.481,-0.551 0.513,-0.532C0.544,-0.513 0.566,-0.486 0.579,-0.451C0.601,-0.484 0.631,-0.511 0.67,-0.531C0.709,-0.55 0.748,-0.56 0.789,-0.56Z" style="fill-rule:nonzero;"/>
                </g>
                <g transform="matrix(577.377,0,0,577.377,1799.88,740.575)">
                    <path d="M0.226,0.009C0.188,0.009 0.153,0.002 0.122,-0.011C0.091,-0.024 0.066,-0.042 0.048,-0.066C0.03,-0.089 0.021,-0.116 0.021,-0.147C0.021,-0.152 0.022,-0.16 0.023,-0.169L0.134,-0.169C0.131,-0.144 0.139,-0.123 0.157,-0.106C0.175,-0.089 0.2,-0.081 0.233,-0.081C0.265,-0.081 0.291,-0.087 0.312,-0.098C0.333,-0.109 0.343,-0.126 0.343,-0.148C0.343,-0.167 0.335,-0.182 0.318,-0.193C0.301,-0.204 0.273,-0.217 0.236,-0.231C0.201,-0.245 0.172,-0.258 0.15,-0.27C0.128,-0.282 0.109,-0.299 0.093,-0.32C0.077,-0.341 0.069,-0.367 0.069,-0.398C0.069,-0.43 0.078,-0.458 0.097,-0.483C0.115,-0.507 0.141,-0.526 0.173,-0.54C0.206,-0.553 0.244,-0.56 0.287,-0.56C0.326,-0.56 0.36,-0.554 0.391,-0.541C0.421,-0.528 0.445,-0.509 0.462,-0.486C0.478,-0.462 0.487,-0.435 0.487,-0.404C0.487,-0.395 0.487,-0.388 0.486,-0.383L0.378,-0.383C0.381,-0.409 0.373,-0.43 0.356,-0.446C0.338,-0.462 0.313,-0.47 0.28,-0.47C0.251,-0.47 0.228,-0.464 0.211,-0.452C0.193,-0.44 0.184,-0.424 0.184,-0.403C0.184,-0.382 0.193,-0.366 0.211,-0.354C0.229,-0.341 0.257,-0.328 0.294,-0.313C0.328,-0.3 0.356,-0.287 0.377,-0.275C0.398,-0.263 0.417,-0.247 0.432,-0.227C0.447,-0.207 0.455,-0.182 0.455,-0.152C0.455,-0.119 0.445,-0.091 0.426,-0.067C0.406,-0.042 0.379,-0.024 0.344,-0.011C0.309,0.002 0.27,0.009 0.226,0.009Z" style="fill:rgb(0,129,255);fill-rule:nonzero;"/>
                </g>
                <g transform="matrix(577.377,0,0,577.377,2108.19,740.575)">
                    <path d="M0.407,-0.56C0.462,-0.56 0.507,-0.545 0.54,-0.514C0.573,-0.483 0.59,-0.438 0.59,-0.381C0.59,-0.366 0.588,-0.347 0.585,-0.325L0.527,-0L0.414,-0L0.469,-0.308C0.472,-0.327 0.473,-0.34 0.473,-0.348C0.473,-0.385 0.463,-0.413 0.443,-0.432C0.422,-0.451 0.394,-0.461 0.358,-0.461C0.315,-0.461 0.278,-0.448 0.249,-0.422C0.219,-0.395 0.2,-0.357 0.192,-0.308L0.192,-0.31L0.137,-0L0.023,-0L0.154,-0.74L0.268,-0.74L0.223,-0.487C0.246,-0.51 0.274,-0.528 0.306,-0.541C0.338,-0.554 0.372,-0.56 0.407,-0.56Z" style="fill:rgb(0,129,255);fill-rule:nonzero;"/>
                </g>
                <g transform="matrix(577.377,0,0,577.377,2482.91,740.575)">
                    <path d="M0.264,0.009C0.217,0.009 0.176,-0.001 0.141,-0.02C0.106,-0.039 0.078,-0.067 0.059,-0.102C0.039,-0.137 0.029,-0.178 0.029,-0.223C0.029,-0.285 0.043,-0.342 0.073,-0.393C0.102,-0.444 0.141,-0.485 0.193,-0.515C0.244,-0.545 0.3,-0.56 0.363,-0.56C0.41,-0.56 0.451,-0.55 0.487,-0.531C0.523,-0.511 0.551,-0.484 0.572,-0.449C0.592,-0.413 0.602,-0.373 0.602,-0.327C0.602,-0.265 0.587,-0.208 0.557,-0.157C0.527,-0.106 0.486,-0.065 0.435,-0.035C0.384,-0.006 0.327,0.009 0.264,0.009ZM0.278,-0.087C0.316,-0.087 0.351,-0.098 0.383,-0.119C0.414,-0.141 0.439,-0.17 0.457,-0.205C0.475,-0.241 0.484,-0.279 0.484,-0.32C0.484,-0.366 0.471,-0.402 0.445,-0.427C0.419,-0.452 0.386,-0.464 0.347,-0.464C0.308,-0.464 0.274,-0.453 0.244,-0.432C0.213,-0.41 0.19,-0.381 0.172,-0.344C0.156,-0.308 0.147,-0.269 0.147,-0.228C0.147,-0.183 0.159,-0.149 0.184,-0.124C0.208,-0.099 0.239,-0.087 0.278,-0.087Z" style="fill:rgb(0,129,255);fill-rule:nonzero;"/>
                </g>
                <g transform="matrix(577.377,0,0,577.377,2851.28,740.575)">
                    <path d="M0.22,-0.47C0.244,-0.495 0.274,-0.517 0.311,-0.534C0.347,-0.551 0.386,-0.56 0.428,-0.56C0.47,-0.56 0.507,-0.551 0.54,-0.533C0.573,-0.515 0.598,-0.489 0.616,-0.456C0.634,-0.423 0.643,-0.384 0.643,-0.339C0.643,-0.32 0.641,-0.299 0.637,-0.278C0.627,-0.223 0.607,-0.173 0.577,-0.13C0.546,-0.086 0.509,-0.052 0.466,-0.028C0.422,-0.003 0.376,0.009 0.328,0.009C0.286,0.009 0.25,0 0.221,-0.017C0.191,-0.034 0.168,-0.055 0.151,-0.08L0.091,0.262L-0.023,0.262L0.12,-0.551L0.234,-0.551L0.22,-0.47ZM0.521,-0.278C0.524,-0.291 0.525,-0.304 0.525,-0.319C0.525,-0.364 0.512,-0.399 0.486,-0.424C0.459,-0.449 0.426,-0.461 0.386,-0.461C0.357,-0.461 0.329,-0.454 0.301,-0.439C0.272,-0.424 0.248,-0.403 0.227,-0.375C0.206,-0.347 0.193,-0.314 0.186,-0.276C0.183,-0.263 0.182,-0.25 0.182,-0.235C0.182,-0.19 0.195,-0.155 0.222,-0.129C0.248,-0.103 0.281,-0.09 0.32,-0.09C0.349,-0.09 0.378,-0.098 0.406,-0.113C0.435,-0.128 0.459,-0.149 0.48,-0.178C0.501,-0.207 0.514,-0.24 0.521,-0.278Z" style="fill:rgb(0,129,255);fill-rule:nonzero;"/>
                </g>
            </g>
        </g>
    </g>
</svg>
